<svg id="visual" viewBox="0 0 900 900" width="900" height="900" xmlns="http://www.w3.org/2000/svg" xmlns:xlink="http://www.w3.org/1999/xlink" version="1.1"><g stroke-width="1" stroke-linejoin="bevel"><path d="M591 592L599 306L296 297Z" fill="#f3f3f4" stroke="#f3f3f4"></path><path d="M296 297L291 604L591 592Z" fill="#f1f1f2" stroke="#f1f1f2"></path><path d="M601 0L300 0L296 297Z" fill="#f1f1f2" stroke="#f1f1f2"></path><path d="M296 297L0 295L291 604Z" fill="#f7f8f9" stroke="#f7f8f9"></path><path d="M0 0L0 295L296 297Z" fill="#f2f2f3" stroke="#f2f2f3"></path><path d="M0 295L0 604L291 604Z" fill="#f5f5f6" stroke="#f5f5f6"></path><path d="M599 306L601 0L296 297Z" fill="#eeeeee" stroke="#eeeeee"></path><path d="M0 900L305 900L291 604Z" fill="#f3f3f4" stroke="#f3f3f4"></path><path d="M291 604L305 900L591 592Z" fill="#eeeeee" stroke="#eeeeee"></path><path d="M305 900L601 900L591 592Z" fill="#f7f8f9" stroke="#f7f8f9"></path><path d="M900 606L900 291L599 306Z" fill="#f8f9fa" stroke="#f8f9fa"></path><path d="M599 306L900 291L601 0Z" fill="#f5f5f6" stroke="#f5f5f6"></path><path d="M900 606L599 306L591 592Z" fill="#f4f4f5" stroke="#f4f4f5"></path><path d="M601 900L900 606L591 592Z" fill="#f2f2f3" stroke="#f2f2f3"></path><path d="M300 0L0 0L296 297Z" fill="#f3f3f4" stroke="#f3f3f4"></path><path d="M0 604L0 900L291 604Z" fill="#f4f4f5" stroke="#f4f4f5"></path><path d="M900 291L900 0L601 0Z" fill="#f2f2f3" stroke="#f2f2f3"></path><path d="M601 900L900 900L900 606Z" fill="#f1f1f2" stroke="#f1f1f2"></path></g></svg>